:FULLY-SPECIFIED
:FORCE-ALL-JOINTS-BE-3DOF
:DEGREES
544
root 8.2429 13.9005 -3.54485 179.85 45.9002 177.525
lfemur -33.5171 -5.12509 -15.8786
ltibia 88.735 -0 0
lfoot -38.9702 -10.888 0.169934
ltoes -5.13732 0 0
rfemur -48.2127 -7.28328 -3.8658
rtibia 61.9361 -0 0
rfoot -8.10396 1.36666 0.231198
rtoes -40.1395 0 0
lowerback 13.1594 0.695607 1.86431
upperback 6.96405 2.09499 7.09825
thorax -0.257305 1.33526 6.12788
lowerneck -2.03971 -15.9468 -6.11299
upperneck 8.81317 -21.6528 8.62379
head 4.57417 -10.4787 2.28044
lclavicle -4.85035e-14 1.11319e-14 0
lhumerus -45.4887 -12.366 104.034
lradius 55.9797 -0 0
lwrist 31.0284 0 0
lhand -25.2708 -3.51566 -0.111416
lfingers 7.12502 -0 0
lthumb 1.26001 26.5991 -0.0571927
rclavicle -4.85035e-14 1.11319e-14 0
rhumerus 9.53259 17.0187 -87.937
rradius 136.78 -0 0
rwrist -48.5471 0 0
rhand -30.2732 -23.2309 -0.213258
rfingers 7.12502 -0 0
rthumb -3.56621 -53.3809 -0.270763
545
root 8.27774 13.896 -3.51625 179.656 45.9401 177.382
lfemur -33.5913 -5.35059 -15.5641
ltibia 88.949 -0 0
lfoot -39.2419 -11.7855 0.110484
ltoes -4.64735 0 0
rfemur -48.4849 -7.63744 -3.5465
rtibia 63.2102 -0 0
rfoot -9.11748 0.941231 0.15041
rtoes -39.8504 0 0
lowerback 13.1164 0.66529 1.80238
upperback 6.98896 2.04669 7.01152
thorax -0.200882 1.31115 6.08108
lowerneck -1.93926 -15.8528 -6.00636
upperneck 8.58533 -21.528 8.715
head 4.48154 -10.422 2.32421
lclavicle -4.85035e-14 1.11319e-14 0
lhumerus -45.675 -11.8607 103.631
lradius 55.705 -0 0
lwrist 31.3222 0 0
lhand -25.1686 -3.21637 -0.0745076
lfingers 7.12502 -0 0
lthumb 1.35594 26.8583 -0.0364147
rclavicle -4.85035e-14 1.11319e-14 0
rhumerus 8.4338 17.9128 -88.4848
rradius 136.151 -0 0
rwrist -47.4011 0 0
rhand -30.0531 -23.1328 -0.150811
rfingers 7.12502 -0 0
rthumb -3.35824 -53.2282 -0.191058
546
root 8.31086 13.9038 -3.48475 179.488 46.1033 177.251
lfemur -33.6354 -5.60419 -15.2881
ltibia 89.021 -0 0
lfoot -39.4506 -12.6094 0.0529408
ltoes -4.13517 0 0
rfemur -48.781 -7.9223 -3.20724
rtibia 64.4108 -0 0
rfoot -10.0068 0.570199 0.0720525
rtoes -39.5021 0 0
lowerback 13.0589 0.634872 1.73497
upperback 6.99229 1.99544 6.91385
thorax -0.158596 1.28466 6.02626
lowerneck -1.8689 -15.7501 -5.89551
upperneck 8.38072 -21.3893 8.77763
head 4.39699 -10.3585 2.35766
lclavicle -4.85035e-14 1.11319e-14 0
lhumerus -45.8501 -11.4636 103.294
lradius 55.4504 -0 0
lwrist 31.5126 0 0
lhand -24.9627 -2.92504 -0.0370468
lfingers 7.12502 -0 0
lthumb 1.55144 27.102 -0.017091
rclavicle -4.85035e-14 1.11319e-14 0
rhumerus 7.28259 18.831 -88.9689
rradius 135.464 -0 0
rwrist -46.1484 0 0
rhand -29.7182 -23.0047 -0.079535
rfingers 7.12502 -0 0
rthumb -3.03988 -53.0381 -0.100542
547
root 8.3426 13.9245 -3.44966 -180.653 46.3973 -182.868
lfemur -33.6469 -5.88619 -15.0556
ltibia 88.9407 0 0
lfoot -39.5906 -13.3481 0
ltoes -3.60323 0 0
rfemur -49.0997 -8.13052 -2.84987
rtibia 65.5231 0 0
rfoot -10.7566 0.259778 0
rtoes -39.0929 0 0
lowerback 12.986 0.604552 1.66225
upperback 6.9725 1.94136 6.80527
thorax -0.131767 1.25582 5.96331
lowerneck -1.83125 -15.6388 -5.78109
upperneck 8.20244 -21.237 8.80926
head 4.32172 -10.2881 2.37983
lclavicle 9.85972e-14 6.36111e-15 0
lhumerus -46.01 -11.1851 103.032
lradius 55.2192 0 0
lwrist 31.5909 0 0
lhand -24.6475 -2.6444 0
lfingers 7.12502 0 0
lthumb 1.85197 27.3273 0
rclavicle 9.85972e-14 6.36111e-15 0
rhumerus 6.08594 19.7702 -89.381
rradius 134.72 0 0
rwrist -44.7914 0 0
rhand -29.263 -22.8451 0
rfingers 7.12502 0 0
rthumb -2.6057 -772.809 0
548
root 8.37009 13.9572 -3.41679 179.389 46.678 177.096
lfemur -33.3847 -5.64909 -14.9814
ltibia 88.3947 -0 0
lfoot -39.714 -13.3852 -0.0228977
ltoes -3.53062 0 0
rfemur -49.0757 -8.33257 -2.52257
rtibia 65.2006 -0 0
rfoot -10.6713 0.303732 0.00735965
rtoes -39.0923 0 0
lowerback 12.8715 0.563319 1.57209
upperback 6.92109 1.86185 6.7326
thorax -0.113803 1.21067 5.94826
lowerneck -1.79612 -15.5909 -5.72355
upperneck 8.12368 -21.173 8.80707
head 4.28165 -10.2591 2.3848
lclavicle 9.85972e-14 6.36111e-15 0
lhumerus -46.0776 -10.8264 102.665
lradius 55.086 -0 0
lwrist 31.621 0 0
lhand -24.7883 -2.63723 0.00589531
lfingers 7.12502 -0 0
lthumb 1.71612 27.3393 0.00609141
rclavicle 9.85972e-14 6.36111e-15 0
rhumerus 6.38501 19.9275 -89.345
rradius 134.658 -0 0
rwrist -44.688 0 0
rhand -29.3879 -22.8511 -0.00215489
rfingers 7.12502 -0 0
rthumb -2.72632 -52.8167 -0.00218087
549
root 8.3903 14.0004 -3.39198 179.477 47.1076 177.073
lfemur -33.0337 -5.35881 -14.9449
ltibia 87.604 -0 0
lfoot -39.7968 -13.2981 -0.0399689
ltoes -3.4695 0 0
rfemur -49.0379 -8.50071 -2.1372
rtibia 64.6381 -0 0
rfoot -10.3875 0.433339 0.0321229
rtoes -39.0749 0 0
lowerback 12.7244 0.515149 1.46317
upperback 6.84038 1.76633 6.64351
thorax -0.106941 1.15568 5.92826
lowerneck -1.78361 -15.5341 -5.6596
upperneck 8.06365 -21.0961 8.77627
head 4.2465 -10.2239 2.37967
lclavicle 9.85972e-14 6.36111e-15 0
lhumerus -46.1345 -10.508 102.299
lradius 54.9616 -0 0
lwrist 31.5576 0 0
lhand -24.8961 -2.66086 0.0105893
lfingers 7.12502 -0 0
lthumb 1.61209 27.3197 0.0109862
rclavicle 9.85972e-14 6.36111e-15 0
rhumerus 6.82705 20.0668 -89.1857
rradius 134.596 -0 0
rwrist -44.5873 0 0
rhand -29.4787 -22.8459 -0.00385721
rfingers 7.12502 -0 0
rthumb -2.81404 -52.8131 -0.00392031
550
root 8.40336 14.0533 -3.37453 179.608 47.673 177.064
lfemur -32.6024 -5.02074 -14.9428
ltibia 86.5904 -0 0
lfoot -39.8411 -13.0955 -0.0512967
ltoes -3.41955 0 0
rfemur -48.9875 -8.63613 -1.70044
rtibia 63.8554 -0 0
rfoot -9.92028 0.642259 0.0717163
rtoes -39.0421 0 0
lowerback 12.5479 0.46068 1.3376
upperback 6.73297 1.65645 6.53983
thorax -0.110488 1.09189 5.90379
lowerneck -1.79231 -15.4694 -5.59016
upperneck 8.02149 -21.0077 8.71901
head 4.2162 -10.1829 2.36514
lclavicle 9.85972e-14 6.36111e-15 0
lhumerus -46.1808 -10.2297 101.937
lradius 54.8461 -0 0
lwrist 31.4072 0 0
lhand -24.9723 -2.71308 0.0140617
lfingers 7.12502 -0 0
lthumb 1.53856 27.2708 0.0146599
rclavicle 9.85972e-14 6.36111e-15 0
rhumerus 7.39994 20.1864 -88.9118
rradius 134.534 -0 0
rwrist -44.4899 0 0
rhand -29.5371 -22.8302 -0.00510303
rfingers 7.12502 -0 0
rthumb -2.87038 -52.7991 -0.00521286
551
root 8.40943 14.1153 -3.36379 179.779 48.3614 177.07
lfemur -32.0998 -4.64016 -14.9716
ltibia 85.3758 -0 0
lfoot -39.849 -12.7863 -0.0572067
ltoes -3.38046 0 0
rfemur -48.9255 -8.74004 -1.21895
rtibia 62.8724 -0 0
rfoot -9.28451 0.92425 0.122976
rtoes -38.9949 0 0
lowerback 12.3454 0.400551 1.19747
upperback 6.60147 1.53385 6.42342
thorax -0.123751 1.02035 5.87535
lowerneck -1.82077 -15.3977 -5.51617
upperneck 7.99631 -20.9092 8.63743
head 4.19066 -10.137 2.34191
lclavicle 9.85972e-14 6.36111e-15 0
lhumerus -46.2165 -9.99092 101.583
lradius 54.7401 -0 0
lwrist 31.1766 0 0
lhand -25.0183 -2.79171 0.0163447
lfingers 7.12502 -0 0
lthumb 1.49418 27.1949 0.0171404
rclavicle 9.85972e-14 6.36111e-15 0
rhumerus 8.09132 20.2841 -88.5324
rradius 134.474 -0 0
rwrist -44.3964 0 0
rhand -29.5645 -22.8048 -0.00590773
rfingers 7.12502 -0 0
rthumb -2.89687 -52.7752 -0.00607183
552
root 8.40863 14.1858 -3.35909 179.99 49.1597 177.093
lfemur -31.5346 -4.22229 -15.028
ltibia 83.982 -0 0
lfoot -39.8224 -12.3794 -0.0582184
ltoes -3.35192 0 0
rfemur -48.8528 -8.81364 -0.699385
rtibia 61.709 -0 0
rfoot -8.4952 1.2731 0.182344
rtoes -38.9347 0 0
lowerback 12.12 0.33541 1.04489
upperback 6.44846 1.40017 6.29612
thorax -0.146036 0.942098 5.84342
lowerneck -1.86758 -15.3201 -5.43856
upperneck 7.98723 -20.802 8.5337
head 4.16981 -10.0868 2.3107
lclavicle 9.85972e-14 6.36111e-15 0
lhumerus -46.2416 -9.79132 101.237
lradius 54.6438 -0 0
lwrist 30.8722 0 0
lhand -25.0355 -2.89452 0.0175141
lfingers 7.12502 -0 0
lthumb 1.47763 27.0941 0.0184984
rclavicle 9.85972e-14 6.36111e-15 0
rhumerus 8.88855 20.3575 -88.0568
rradius 134.416 -0 0
rwrist -44.3072 0 0
rhand -29.5626 -22.7705 -0.00630241
rfingers 7.12502 -0 0
rthumb -2.89503 -52.7425 -0.00652585
553
root 8.40112 14.2642 -3.35975 -179.763 50.0551 177.134
lfemur -30.9156 -3.77231 -15.1085
ltibia 82.431 -0 0
lfoot -39.7634 -11.8834 -0.0549995
ltoes -3.33364 0 0
rfemur -48.7705 -8.85812 -0.148387
rtibia 60.3852 -0 0
rfoot -7.56734 1.68259 0.246048
rtoes -38.8626 0 0
lowerback 11.8751 0.265921 0.881929
upperback 6.27654 1.25706 6.15976
thorax -0.176654 0.858175 5.80849
lowerneck -1.93129 -15.2374 -5.35826
upperneck 7.99336 -20.6876 8.41001
head 4.15356 -10.033 2.2722
lclavicle 9.85972e-14 6.36111e-15 0
lhumerus -46.2563 -9.63047 100.903
lradius 54.5576 -0 0
lwrist 30.5008 0 0
lhand -25.0252 -3.01933 0.0176802
lfingers 7.12502 -0 0
lthumb 1.48758 26.9706 0.0188394
rclavicle 9.85972e-14 6.36111e-15 0
rhumerus 9.77876 20.404 -87.4947
rradius 134.36 -0 0
rwrist -44.223 0 0
rhand -29.533 -22.728 -0.00633061
rfingers 7.12502 -0 0
rthumb -2.86639 -52.7015 -0.00661575
554
root 8.38702 14.3497 -3.36511 -179.479 51.0344 177.195
lfemur -30.2515 -3.29541 -15.21
ltibia 80.7446 -0 0
lfoot -39.6741 -11.3073 -0.0483239
ltoes -3.32529 0 0
rfemur -48.6794 -8.87465 0.427406
rtibia 58.9208 -0 0
rfoot -6.51591 2.14641 0.310269
rtoes -38.78 0 0
lowerback 11.6138 0.192772 0.710683
upperback 6.08827 1.10619 6.01616
thorax -0.214913 0.769622 5.77106
lowerneck -2.0105 -15.1508 -5.27619
upperneck 8.01383 -20.5672 8.26853
head 4.14184 -9.97619 2.22713
lclavicle 9.85972e-14 6.36111e-15 0
lhumerus -46.2604 -9.50797 100.584
lradius 54.4818 -0 0
lwrist 30.0689 0 0
lhand -24.9889 -3.16394 0.0169795
lfingers 7.12502 -0 0
lthumb 1.52269 26.8267 0.018295
rclavicle 9.85972e-14 6.36111e-15 0
rhumerus 10.7488 20.4213 -86.8558
rradius 134.306 -0 0
rwrist -44.1443 0 0
rhand -29.4771 -22.6782 -0.00604514
rfingers 7.12502 -0 0
rthumb -2.81245 -52.653 -0.00639147
555
root 8.36648 14.4418 -3.37449 -179.161 52.0846 177.278
lfemur -29.551 -2.79683 -15.3296
ltibia 78.9448 -0 0
lfoot -39.5563 -10.6597 -0.0390325
ltoes -3.32657 0 0
rfemur -48.5803 -8.86439 1.02136
rtibia 57.3357 -0 0
rfoot -5.35599 2.65814 0.371286
rtoes -38.6879 0 0
lowerback 11.3394 0.11668 0.533215
upperback 5.8862 0.949247 5.86714
thorax -0.260127 0.67748 5.73162
lowerneck -2.10379 -15.061 -5.1933
upperneck 8.04776 -20.4422 8.11141
head 4.13457 -9.91713 2.1762
lclavicle 9.85972e-14 6.36111e-15 0
lhumerus -46.254 -9.42343 100.282
lradius 54.4167 -0 0
lwrist 29.5832 0 0
lhand -24.9279 -3.32614 0.0155678
lfingers 7.12502 -0 0
lthumb 1.58164 26.6646 0.0170163
rclavicle 9.85972e-14 6.36111e-15 0
rhumerus 11.7854 20.407 -86.1504
rradius 134.255 -0 0
rwrist -44.0716 0 0
rhand -29.3967 -22.6219 -0.00550525
rfingers 7.12502 -0 0
rthumb -2.73476 -52.598 -0.00590937
